<?xml version="1.0" encoding="UTF-8"?>
<svg width="800" height="600" viewBox="0 0 800 600" xmlns="http://www.w3.org/2000/svg">
  <!-- Background Hills -->
  <path d="M0 400 Q 200 300 400 400 Q 600 500 800 400 L 800 600 L 0 600 Z" fill="#e8f5e9"/>
  
  <!-- Solar Panels Group 1 -->
  <g transform="translate(100, 300)">
    <rect x="0" y="0" width="120" height="80" fill="#2ecc71" rx="5"/>
    <line x1="0" y1="27" x2="120" y2="27" stroke="#27ae60" stroke-width="2"/>
    <line x1="0" y1="54" x2="120" y2="54" stroke="#27ae60" stroke-width="2"/>
    <line x1="40" y1="0" x2="40" y2="80" stroke="#27ae60" stroke-width="2"/>
    <line x1="80" y1="0" x2="80" y2="80" stroke="#27ae60" stroke-width="2"/>
    <rect x="55" y="80" width="10" height="40" fill="#34495e"/>
  </g>

  <!-- Solar Panels Group 2 -->
  <g transform="translate(300, 250)">
    <rect x="0" y="0" width="120" height="80" fill="#2ecc71" rx="5"/>
    <line x1="0" y1="27" x2="120" y2="27" stroke="#27ae60" stroke-width="2"/>
    <line x1="0" y1="54" x2="120" y2="54" stroke="#27ae60" stroke-width="2"/>
    <line x1="40" y1="0" x2="40" y2="80" stroke="#27ae60" stroke-width="2"/>
    <line x1="80" y1="0" x2="80" y2="80" stroke="#27ae60" stroke-width="2"/>
    <rect x="55" y="80" width="10" height="40" fill="#34495e"/>
  </g>

  <!-- Solar Panels Group 3 -->
  <g transform="translate(500, 350)">
    <rect x="0" y="0" width="120" height="80" fill="#2ecc71" rx="5"/>
    <line x1="0" y1="27" x2="120" y2="27" stroke="#27ae60" stroke-width="2"/>
    <line x1="0" y1="54" x2="120" y2="54" stroke="#27ae60" stroke-width="2"/>
    <line x1="40" y1="0" x2="40" y2="80" stroke="#27ae60" stroke-width="2"/>
    <line x1="80" y1="0" x2="80" y2="80" stroke="#27ae60" stroke-width="2"/>
    <rect x="55" y="80" width="10" height="40" fill="#34495e"/>
  </g>

  <!-- Sun -->
  <circle cx="700" cy="100" r="40" fill="#f1c40f"/>
  <g transform="translate(700, 100)">
    <line x1="-60" y1="0" x2="-45" y2="0" stroke="#f1c40f" stroke-width="4"/>
    <line x1="45" y1="0" x2="60" y2="0" stroke="#f1c40f" stroke-width="4"/>
    <line x1="0" y1="-60" x2="0" y2="-45" stroke="#f1c40f" stroke-width="4"/>
    <line x1="0" y1="45" x2="0" y2="60" stroke="#f1c40f" stroke-width="4"/>
    <line x1="-42" y1="-42" x2="-32" y2="-32" stroke="#f1c40f" stroke-width="4"/>
    <line x1="32" y1="32" x2="42" y2="42" stroke="#f1c40f" stroke-width="4"/>
    <line x1="-42" y1="42" x2="-32" y2="32" stroke="#f1c40f" stroke-width="4"/>
    <line x1="32" y1="-32" x2="42" y2="-42" stroke="#f1c40f" stroke-width="4"/>
  </g>

  <!-- Clouds -->
  <g fill="#ecf0f1">
    <circle cx="100" cy="100" r="20"/>
    <circle cx="130" cy="100" r="25"/>
    <circle cx="160" cy="100" r="20"/>
    
    <circle cx="400" cy="150" r="25"/>
    <circle cx="430" cy="150" r="30"/>
    <circle cx="460" cy="150" r="25"/>
  </g>

  <!-- Trees -->
  <g transform="translate(200, 350)">
    <path d="M-20 0 L20 0 L0 -40 Z" fill="#27ae60"/>
    <rect x="-5" y="0" width="10" height="20" fill="#795548"/>
  </g>

  <g transform="translate(600, 320)">
    <path d="M-20 0 L20 0 L0 -40 Z" fill="#27ae60"/>
    <rect x="-5" y="0" width="10" height="20" fill="#795548"/>
  </g>
</svg> 